# xmcd
#
# Track frame offsets:
#	150
#	23980
#	59405
#	101445
#	127842
#	152130
#	177525
#	198170
#	231462
#	254485
#	309775
#
# Disc length: 4502 seconds
#
# Revision: 0
# Processed by: cddbd v1.5.2PL0 Copyright (c) Steve Scherf et al.
# Submitted via: EZCDAudioConverter 1.0.8.1
#
DISCID=8f11940b
DTITLE=The Allman Brothers Band - Hittin’ the Note
DYEAR=2003
DGENRE=
TTITLE0=Firing Line
TTITLE1=High Cost of Low Living
TTITLE2=Desdemona
TTITLE3=Woman Across the River
TTITLE4=Old Before My Time
TTITLE5=Who to Believe
TTITLE6=Maydell
TTITLE7=Rockin’ Horse
TTITLE8=Heart of Stone
TTITLE9=Instrumental Illness
TTITLE10=Old Friend
EXTD=
EXTT0=
EXTT1=
EXTT2=
EXTT3=
EXTT4=
EXTT5=
EXTT6=
EXTT7=
EXTT8=
EXTT9=
EXTT10=
PLAYORDER=
